<svg xmlns="http://www.w3.org/2000/svg" width="880" height="318" viewBox="0 0 880 318" role="img" aria-label="Map of BFME 1&#x27;s code by folder">
  <style>
    .card { fill: #0d1117; stroke: #30363d; } .muted { fill: #8b949e; } .grid { stroke: #30363d; }
    .axis { fill: #8b949e; font-size: 12px; } .rest { fill: #30363d; } .edge { stroke: #0d1117; }
    .hit { fill: transparent; }
    @media (prefers-color-scheme: light) {
      .card { fill: #ffffff; stroke: #d0d7de; } .muted { fill: #59636e; } .grid { stroke: #d0d7de; }
      .axis { fill: #59636e; } .rest { fill: #d0d7de; } .edge { stroke: #ffffff; }
    }
  </style>
  <defs><pattern id="dots" width="5" height="5" patternUnits="userSpaceOnUse"><rect width="5" height="5" fill="#56d364"/><circle cx="2.5" cy="2.5" r="1.1" fill="#196c2e"/></pattern></defs>
  <rect class="card" x="0.5" y="0.5" width="879" height="317" rx="12"/>
  <g font-family="-apple-system,BlinkMacSystemFont,'Segoe UI','Noto Sans',Helvetica,Arial,sans-serif">
    <text x="28" y="29" class="muted" font-size="13" font-weight="600" letter-spacing="1.3">BFME 1 · MAP</text>
    <rect x="150" y="20" width="10" height="10" rx="2" fill="url(#dots)"/><text x="166" y="29" class="muted" font-size="12.5">linked</text><rect x="222" y="20" width="10" height="10" rx="2" fill="#2ea043"/><text x="238" y="29" class="muted" font-size="12.5">byte-matched: our own source</text><rect x="420" y="20" width="10" height="10" rx="2" fill="#196c2e"/><text x="436" y="29" class="muted" font-size="12.5">generated code, Microsoft libraries</text><rect x="660" y="20" width="10" height="10" rx="2" fill="#6e7681"/><text x="676" y="29" class="muted" font-size="12.5">still original</text>
    <g><title>dumps
1,174,687 bytes
byte-matched 0.0% (own source 0.0%)
linked (last census) 0.0%</title><clipPath id="t0"><rect x="28.0" y="44.0" width="195.4" height="130.0"/></clipPath><g clip-path="url(#t0)"><rect class="rest" x="28.0" y="44.0" width="195.4" height="130.0"/>
<text x="32.0" y="58.5" font-size="11.0" fill="#ffffff" style="paint-order:stroke" stroke="#0008" stroke-width="2">Dumps</text>
</g><rect class="edge" x="28.0" y="44.0" width="195.4" height="130.0" fill="none"/></g>
    <g><title>game/GameEngine/Source/Common
1,125,897 bytes
byte-matched 99.3% (own source 95.0%)
linked (last census) 40.4%</title><clipPath id="t1"><rect x="28.0" y="174.0" width="195.4" height="124.6"/></clipPath><g clip-path="url(#t1)"><rect class="rest" x="28.0" y="174.0" width="195.4" height="124.6"/>
<rect x="28.0" y="174.0" width="194.0" height="124.6" fill="#196c2e"/>
<rect x="28.0" y="174.0" width="185.6" height="124.6" fill="#2ea043"/>
<rect x="28.0" y="174.0" width="78.9" height="124.6" fill="url(#dots)"/>
<text x="32.0" y="188.6" font-size="11.0" fill="#ffffff" style="paint-order:stroke" stroke="#0008" stroke-width="2">Common</text>
</g><rect class="edge" x="28.0" y="174.0" width="195.4" height="124.6" fill="none"/></g>
    <g><title>game/gen_small
951,500 bytes
byte-matched 98.4% (own source 0.0%)
linked (last census) 0.0%</title><clipPath id="t2"><rect x="223.4" y="44.0" width="155.6" height="132.3"/></clipPath><g clip-path="url(#t2)"><rect class="rest" x="223.4" y="44.0" width="155.6" height="132.3"/>
<rect x="223.4" y="44.0" width="153.1" height="132.3" fill="#196c2e"/>
<text x="227.4" y="58.5" font-size="11.0" fill="#ffffff" style="paint-order:stroke" stroke="#0008" stroke-width="2">Generated C++</text>
</g><rect class="edge" x="223.4" y="44.0" width="155.6" height="132.3" fill="none"/></g>
    <g><title>inputs/vendor/d3dx9
880,616 bytes
byte-matched 100.0% (own source 0.0%)
linked (last census) 0.0%</title><clipPath id="t3"><rect x="223.4" y="176.3" width="155.6" height="122.4"/></clipPath><g clip-path="url(#t3)"><rect class="rest" x="223.4" y="176.3" width="155.6" height="122.4"/>
<rect x="223.4" y="176.3" width="155.6" height="122.4" fill="#196c2e"/>
<text x="227.4" y="190.8" font-size="11.0" fill="#ffffff" style="paint-order:stroke" stroke="#0008" stroke-width="2">d3dx9 (Microsoft)</text>
</g><rect class="edge" x="223.4" y="176.3" width="155.6" height="122.4" fill="none"/></g>
    <g><title>game/GameEngine/Source/GameClient/GUI
640,006 bytes
byte-matched 98.2% (own source 95.8%)
linked (last census) 7.9%</title><clipPath id="t4"><rect x="379.0" y="44.0" width="106.9" height="129.5"/></clipPath><g clip-path="url(#t4)"><rect class="rest" x="379.0" y="44.0" width="106.9" height="129.5"/>
<rect x="379.0" y="44.0" width="105.0" height="129.5" fill="#196c2e"/>
<rect x="379.0" y="44.0" width="102.5" height="129.5" fill="#2ea043"/>
<rect x="379.0" y="44.0" width="8.5" height="129.5" fill="url(#dots)"/>
<text x="383.0" y="58.5" font-size="11.0" fill="#ffffff" style="paint-order:stroke" stroke="#0008" stroke-width="2">GUI</text>
</g><rect class="edge" x="379.0" y="44.0" width="106.9" height="129.5" fill="none"/></g>
    <g><title>game/GameEngine/Source/GameLogic/Object
618,957 bytes
byte-matched 93.7% (own source 89.3%)
linked (last census) 18.3%</title><clipPath id="t5"><rect x="379.0" y="173.5" width="106.9" height="125.2"/></clipPath><g clip-path="url(#t5)"><rect class="rest" x="379.0" y="173.5" width="106.9" height="125.2"/>
<rect x="379.0" y="173.5" width="100.2" height="125.2" fill="#196c2e"/>
<rect x="379.0" y="173.5" width="95.5" height="125.2" fill="#2ea043"/>
<rect x="379.0" y="173.5" width="19.6" height="125.2" fill="url(#dots)"/>
<text x="383.0" y="188.0" font-size="11.0" fill="#ffffff" style="paint-order:stroke" stroke="#0008" stroke-width="2">Object</text>
</g><rect class="edge" x="379.0" y="173.5" width="106.9" height="125.2" fill="none"/></g>
    <g><title>game/GameEngineDevice/Source/W3DDevice/GameClient
527,001 bytes
byte-matched 96.8% (own source 95.6%)
linked (last census) 18.6%</title><clipPath id="t6"><rect x="485.9" y="44.0" width="110.0" height="103.6"/></clipPath><g clip-path="url(#t6)"><rect class="rest" x="485.9" y="44.0" width="110.0" height="103.6"/>
<rect x="485.9" y="44.0" width="106.5" height="103.6" fill="#196c2e"/>
<rect x="485.9" y="44.0" width="105.2" height="103.6" fill="#2ea043"/>
<rect x="485.9" y="44.0" width="20.5" height="103.6" fill="url(#dots)"/>
<text x="489.9" y="58.5" font-size="11.0" fill="#ffffff" style="paint-order:stroke" stroke="#0008" stroke-width="2">GameClient</text>
</g><rect class="edge" x="485.9" y="44.0" width="110.0" height="103.6" fill="none"/></g>
    <g><title>game/Libraries/Source/WWVegas/WW3D2
430,301 bytes
byte-matched 97.8% (own source 96.9%)
linked (last census) 18.5%</title><clipPath id="t7"><rect x="485.9" y="147.6" width="110.0" height="84.6"/></clipPath><g clip-path="url(#t7)"><rect class="rest" x="485.9" y="147.6" width="110.0" height="84.6"/>
<rect x="485.9" y="147.6" width="107.6" height="84.6" fill="#196c2e"/>
<rect x="485.9" y="147.6" width="106.6" height="84.6" fill="#2ea043"/>
<rect x="485.9" y="147.6" width="20.3" height="84.6" fill="url(#dots)"/>
<text x="489.9" y="162.2" font-size="11.0" fill="#ffffff" style="paint-order:stroke" stroke="#0008" stroke-width="2">WW3D2</text>
</g><rect class="edge" x="485.9" y="147.6" width="110.0" height="84.6" fill="none"/></g>
    <g><title>game/GameEngine/Source/GameNetwork/GameSpy
338,056 bytes
byte-matched 98.8% (own source 93.2%)
linked (last census) 41.4%</title><clipPath id="t8"><rect x="485.9" y="232.2" width="110.0" height="66.5"/></clipPath><g clip-path="url(#t8)"><rect class="rest" x="485.9" y="232.2" width="110.0" height="66.5"/>
<rect x="485.9" y="232.2" width="108.7" height="66.5" fill="#196c2e"/>
<rect x="485.9" y="232.2" width="102.5" height="66.5" fill="#2ea043"/>
<rect x="485.9" y="232.2" width="45.5" height="66.5" fill="url(#dots)"/>
<text x="489.9" y="246.8" font-size="11.0" fill="#ffffff" style="paint-order:stroke" stroke="#0008" stroke-width="2">GameSpy</text>
</g><rect class="edge" x="485.9" y="232.2" width="110.0" height="66.5" fill="none"/></g>
    <g><title>game/Libraries/Source/WWVegas/WWLib
318,513 bytes
byte-matched 99.6% (own source 96.9%)
linked (last census) 17.7%</title><clipPath id="t9"><rect x="595.9" y="44.0" width="74.8" height="92.1"/></clipPath><g clip-path="url(#t9)"><rect class="rest" x="595.9" y="44.0" width="74.8" height="92.1"/>
<rect x="595.9" y="44.0" width="74.5" height="92.1" fill="#196c2e"/>
<rect x="595.9" y="44.0" width="72.5" height="92.1" fill="#2ea043"/>
<rect x="595.9" y="44.0" width="13.2" height="92.1" fill="url(#dots)"/>
<text x="599.9" y="58.5" font-size="11.0" fill="#ffffff" style="paint-order:stroke" stroke="#0008" stroke-width="2">WWLib</text>
</g><rect class="edge" x="595.9" y="44.0" width="74.8" height="92.1" fill="none"/></g>
    <g><title>game/GameEngine/Source/GameLogic/ScriptEngine
290,213 bytes
byte-matched 98.3% (own source 97.9%)
linked (last census) 45.7%</title><clipPath id="t10"><rect x="595.9" y="136.1" width="74.8" height="83.9"/></clipPath><g clip-path="url(#t10)"><rect class="rest" x="595.9" y="136.1" width="74.8" height="83.9"/>
<rect x="595.9" y="136.1" width="73.6" height="83.9" fill="#196c2e"/>
<rect x="595.9" y="136.1" width="73.3" height="83.9" fill="#2ea043"/>
<rect x="595.9" y="136.1" width="34.2" height="83.9" fill="url(#dots)"/>
<text x="599.9" y="149.5" font-size="9.9" fill="#ffffff" style="paint-order:stroke" stroke="#0008" stroke-width="2">ScriptEngine</text>
</g><rect class="edge" x="595.9" y="136.1" width="74.8" height="83.9" fill="none"/></g>
    <g><title>Libraries: 38 smaller folders
272,232 bytes
byte-matched 98.9% (own source 93.3%)
linked (last census) 37.6%</title><clipPath id="t11"><rect x="595.9" y="220.0" width="74.8" height="78.7"/></clipPath><g clip-path="url(#t11)"><rect class="rest" x="595.9" y="220.0" width="74.8" height="78.7"/>
<rect x="595.9" y="220.0" width="74.0" height="78.7" fill="#196c2e"/>
<rect x="595.9" y="220.0" width="69.8" height="78.7" fill="#2ea043"/>
<rect x="595.9" y="220.0" width="28.1" height="78.7" fill="url(#dots)"/>
<text x="599.9" y="234.5" font-size="11.0" fill="#ffffff" style="paint-order:stroke" stroke="#0008" stroke-width="2">Libraries:</text>
<text x="599.9" y="248.8" font-size="11.0" fill="#ffffff" style="paint-order:stroke" stroke="#0008" stroke-width="2">38 smaller</text>
<text x="599.9" y="263.1" font-size="11.0" fill="#ffffff" style="paint-order:stroke" stroke="#0008" stroke-width="2">folders</text>
</g><rect class="edge" x="595.9" y="220.0" width="74.8" height="78.7" fill="none"/></g>
    <g><title>game/GameEngine/Source/GameLogic/AI
223,266 bytes
byte-matched 93.0% (own source 92.2%)
linked (last census) 24.5%</title><clipPath id="t12"><rect x="670.7" y="44.0" width="63.6" height="76.0"/></clipPath><g clip-path="url(#t12)"><rect class="rest" x="670.7" y="44.0" width="63.6" height="76.0"/>
<rect x="670.7" y="44.0" width="59.1" height="76.0" fill="#196c2e"/>
<rect x="670.7" y="44.0" width="58.6" height="76.0" fill="#2ea043"/>
<rect x="670.7" y="44.0" width="15.6" height="76.0" fill="url(#dots)"/>
<text x="674.7" y="58.5" font-size="11.0" fill="#ffffff" style="paint-order:stroke" stroke="#0008" stroke-width="2">AI</text>
</g><rect class="edge" x="670.7" y="44.0" width="63.6" height="76.0" fill="none"/></g>
    <g><title>game/GameEngine/Source/GameNetwork
214,606 bytes
byte-matched 95.7% (own source 94.4%)
linked (last census) 17.6%</title><clipPath id="t13"><rect x="734.3" y="44.0" width="61.1" height="76.0"/></clipPath><g clip-path="url(#t13)"><rect class="rest" x="734.3" y="44.0" width="61.1" height="76.0"/>
<rect x="734.3" y="44.0" width="58.5" height="76.0" fill="#196c2e"/>
<rect x="734.3" y="44.0" width="57.7" height="76.0" fill="#2ea043"/>
<rect x="734.3" y="44.0" width="10.7" height="76.0" fill="url(#dots)"/>
<text x="738.3" y="56.0" font-size="8.6" fill="#ffffff" style="paint-order:stroke" stroke="#0008" stroke-width="2">GameNetwork</text>
</g><rect class="edge" x="734.3" y="44.0" width="61.1" height="76.0" fill="none"/></g>
    <g><title>Game engine: 24 smaller folders
198,918 bytes
byte-matched 97.9% (own source 96.3%)
linked (last census) 28.2%</title><clipPath id="t14"><rect x="795.4" y="44.0" width="56.6" height="76.0"/></clipPath><g clip-path="url(#t14)"><rect class="rest" x="795.4" y="44.0" width="56.6" height="76.0"/>
<rect x="795.4" y="44.0" width="55.4" height="76.0" fill="#196c2e"/>
<rect x="795.4" y="44.0" width="54.5" height="76.0" fill="#2ea043"/>
<rect x="795.4" y="44.0" width="15.9" height="76.0" fill="url(#dots)"/>
<text x="799.4" y="56.5" font-size="9.0" fill="#ffffff" style="paint-order:stroke" stroke="#0008" stroke-width="2">Game</text>
<text x="799.4" y="68.2" font-size="9.0" fill="#ffffff" style="paint-order:stroke" stroke="#0008" stroke-width="2">engine:</text>
<text x="799.4" y="79.8" font-size="9.0" fill="#ffffff" style="paint-order:stroke" stroke="#0008" stroke-width="2">24</text>
<text x="799.4" y="91.6" font-size="9.0" fill="#ffffff" style="paint-order:stroke" stroke="#0008" stroke-width="2">smaller</text>
<text x="799.4" y="103.2" font-size="9.0" fill="#ffffff" style="paint-order:stroke" stroke="#0008" stroke-width="2">folders</text>
</g><rect class="edge" x="795.4" y="44.0" width="56.6" height="76.0" fill="none"/></g>
    <g><title>game/GameEngine/Source/GameClient
172,569 bytes
byte-matched 93.4% (own source 91.1%)
linked (last census) 13.6%</title><clipPath id="t15"><rect x="670.7" y="120.0" width="57.6" height="64.8"/></clipPath><g clip-path="url(#t15)"><rect class="rest" x="670.7" y="120.0" width="57.6" height="64.8"/>
<rect x="670.7" y="120.0" width="53.8" height="64.8" fill="#196c2e"/>
<rect x="670.7" y="120.0" width="52.5" height="64.8" fill="#2ea043"/>
<rect x="670.7" y="120.0" width="7.8" height="64.8" fill="url(#dots)"/>
<text x="674.7" y="132.3" font-size="8.9" fill="#ffffff" style="paint-order:stroke" stroke="#0008" stroke-width="2">GameClient</text>
</g><rect class="edge" x="670.7" y="120.0" width="57.6" height="64.8" fill="none"/></g>
    <g><title>inputs/vendor/dxerr9
163,771 bytes
byte-matched 100.0% (own source 0.0%)
linked (last census) 0.0%</title><clipPath id="t16"><rect x="670.7" y="184.8" width="57.6" height="61.5"/></clipPath><g clip-path="url(#t16)"><rect class="rest" x="670.7" y="184.8" width="57.6" height="61.5"/>
<rect x="670.7" y="184.8" width="57.6" height="61.5" fill="#196c2e"/>
<text x="674.7" y="197.2" font-size="9.0" fill="#ffffff" style="paint-order:stroke" stroke="#0008" stroke-width="2">dxerr9</text>
<text x="674.7" y="208.9" font-size="9.0" fill="#ffffff" style="paint-order:stroke" stroke="#0008" stroke-width="2">(Microsoft)</text>
</g><rect class="edge" x="670.7" y="184.8" width="57.6" height="61.5" fill="none"/></g>
    <g><title>unclaimed
139,587 bytes
byte-matched 0.0% (own source 0.0%)
linked (last census) 0.0%</title><clipPath id="t17"><rect x="670.7" y="246.3" width="57.6" height="52.4"/></clipPath><g clip-path="url(#t17)"><rect class="rest" x="670.7" y="246.3" width="57.6" height="52.4"/>
<text x="674.7" y="258.7" font-size="9.0" fill="#ffffff" style="paint-order:stroke" stroke="#0008" stroke-width="2">Unclaimed</text>
</g><rect class="edge" x="670.7" y="246.3" width="57.6" height="52.4" fill="none"/></g>
    <g><title>game/GameEngine/Source/Common/System
136,137 bytes
byte-matched 98.7% (own source 92.0%)
linked (last census) 18.3%</title><clipPath id="t18"><rect x="728.4" y="120.0" width="66.2" height="44.5"/></clipPath><g clip-path="url(#t18)"><rect class="rest" x="728.4" y="120.0" width="66.2" height="44.5"/>
<rect x="728.4" y="120.0" width="65.3" height="44.5" fill="#196c2e"/>
<rect x="728.4" y="120.0" width="60.9" height="44.5" fill="#2ea043"/>
<rect x="728.4" y="120.0" width="12.1" height="44.5" fill="url(#dots)"/>
<text x="732.4" y="134.5" font-size="11.0" fill="#ffffff" style="paint-order:stroke" stroke="#0008" stroke-width="2">System</text>
</g><rect class="edge" x="728.4" y="120.0" width="66.2" height="44.5" fill="none"/></g>
    <g><title>game/GameEngine/Source/GameClient/System
118,182 bytes
byte-matched 96.2% (own source 94.1%)
linked (last census) 12.2%</title><clipPath id="t19"><rect x="794.5" y="120.0" width="57.5" height="44.5"/></clipPath><g clip-path="url(#t19)"><rect class="rest" x="794.5" y="120.0" width="57.5" height="44.5"/>
<rect x="794.5" y="120.0" width="55.3" height="44.5" fill="#196c2e"/>
<rect x="794.5" y="120.0" width="54.1" height="44.5" fill="#2ea043"/>
<rect x="794.5" y="120.0" width="7.0" height="44.5" fill="url(#dots)"/>
<text x="798.5" y="132.4" font-size="9.0" fill="#ffffff" style="paint-order:stroke" stroke="#0008" stroke-width="2">System</text>
</g><rect class="edge" x="794.5" y="120.0" width="57.5" height="44.5" fill="none"/></g>
    <g><title>game/GameEngine/Source/Common/RTS
107,842 bytes
byte-matched 95.2% (own source 86.3%)
linked (last census) 13.4%</title><clipPath id="t20"><rect x="728.4" y="164.5" width="42.9" height="54.3"/></clipPath><g clip-path="url(#t20)"><rect class="rest" x="728.4" y="164.5" width="42.9" height="54.3"/>
<rect x="728.4" y="164.5" width="40.9" height="54.3" fill="#196c2e"/>
<rect x="728.4" y="164.5" width="37.1" height="54.3" fill="#2ea043"/>
<rect x="728.4" y="164.5" width="5.8" height="54.3" fill="url(#dots)"/>
<text x="732.4" y="176.9" font-size="9.0" fill="#ffffff" style="paint-order:stroke" stroke="#0008" stroke-width="2">RTS</text>
</g><rect class="edge" x="728.4" y="164.5" width="42.9" height="54.3" fill="none"/></g>
    <g><title>game/Libraries/Source/WWVegas/WWMath
103,539 bytes
byte-matched 100.0% (own source 99.5%)
linked (last census) 80.8%</title><clipPath id="t21"><rect x="771.3" y="164.5" width="41.2" height="54.3"/></clipPath><g clip-path="url(#t21)"><rect class="rest" x="771.3" y="164.5" width="41.2" height="54.3"/>
<rect x="771.3" y="164.5" width="41.2" height="54.3" fill="#196c2e"/>
<rect x="771.3" y="164.5" width="41.0" height="54.3" fill="#2ea043"/>
<rect x="771.3" y="164.5" width="33.3" height="54.3" fill="url(#dots)"/>
<text x="775.3" y="176.9" font-size="9.0" fill="#ffffff" style="paint-order:stroke" stroke="#0008" stroke-width="2">WWMath</text>
</g><rect class="edge" x="771.3" y="164.5" width="41.2" height="54.3" fill="none"/></g>
    <g><title>game/Libraries/Source/DirtySock
99,248 bytes
byte-matched 97.8% (own source 97.8%)
linked (last census) 29.4%</title><clipPath id="t22"><rect x="812.5" y="164.5" width="39.5" height="54.3"/></clipPath><g clip-path="url(#t22)"><rect class="rest" x="812.5" y="164.5" width="39.5" height="54.3"/>
<rect x="812.5" y="164.5" width="38.6" height="54.3" fill="#196c2e"/>
<rect x="812.5" y="164.5" width="38.6" height="54.3" fill="#2ea043"/>
<rect x="812.5" y="164.5" width="11.6" height="54.3" fill="url(#dots)"/>
<text x="816.5" y="174.8" font-size="7.0" fill="#ffffff" style="paint-order:stroke" stroke="#0008" stroke-width="2">DirtySock</text>
</g><rect class="edge" x="812.5" y="164.5" width="39.5" height="54.3" fill="none"/></g>
    <g><title>game/Libraries/Source/EA/Apt
88,462 bytes
byte-matched 100.0% (own source 99.2%)
linked (last census) 13.9%</title><clipPath id="t23"><rect x="728.4" y="218.8" width="43.9" height="43.6"/></clipPath><g clip-path="url(#t23)"><rect class="rest" x="728.4" y="218.8" width="43.9" height="43.6"/>
<rect x="728.4" y="218.8" width="43.9" height="43.6" fill="#196c2e"/>
<rect x="728.4" y="218.8" width="43.5" height="43.6" fill="#2ea043"/>
<rect x="728.4" y="218.8" width="6.1" height="43.6" fill="url(#dots)"/>
<text x="732.4" y="231.3" font-size="9.0" fill="#ffffff" style="paint-order:stroke" stroke="#0008" stroke-width="2">Apt</text>
</g><rect class="edge" x="728.4" y="218.8" width="43.9" height="43.6" fill="none"/></g>
    <g><title>game/GameEngine/Source/Common/Audio
73,475 bytes
byte-matched 99.4% (own source 24.9%)
linked (last census) 5.6%</title><clipPath id="t24"><rect x="728.4" y="262.5" width="43.9" height="36.2"/></clipPath><g clip-path="url(#t24)"><rect class="rest" x="728.4" y="262.5" width="43.9" height="36.2"/>
<rect x="728.4" y="262.5" width="43.6" height="36.2" fill="#196c2e"/>
<rect x="728.4" y="262.5" width="10.9" height="36.2" fill="#2ea043"/>
<rect x="728.4" y="262.5" width="2.5" height="36.2" fill="url(#dots)"/>
<text x="732.4" y="274.9" font-size="9.0" fill="#ffffff" style="paint-order:stroke" stroke="#0008" stroke-width="2">Audio</text>
</g><rect class="edge" x="728.4" y="262.5" width="43.9" height="36.2" fill="none"/></g>
    <g><title>game/Libraries/Source/Lua
66,456 bytes
byte-matched 100.0% (own source 99.2%)
linked (last census) 99.2%</title><clipPath id="t25"><rect x="772.2" y="218.8" width="41.2" height="34.9"/></clipPath><g clip-path="url(#t25)"><rect class="rest" x="772.2" y="218.8" width="41.2" height="34.9"/>
<rect x="772.2" y="218.8" width="41.2" height="34.9" fill="#196c2e"/>
<rect x="772.2" y="218.8" width="40.8" height="34.9" fill="#2ea043"/>
<rect x="772.2" y="218.8" width="40.8" height="34.9" fill="url(#dots)"/>
<text x="776.2" y="231.3" font-size="9.0" fill="#ffffff" style="paint-order:stroke" stroke="#0008" stroke-width="2">Lua</text>
</g><rect class="edge" x="772.2" y="218.8" width="41.2" height="34.9" fill="none"/></g>
    <g><title>game/GameEngine/Source/Common/Thing
62,311 bytes
byte-matched 98.8% (own source 96.1%)
linked (last census) 25.7%</title><clipPath id="t26"><rect x="813.4" y="218.8" width="38.6" height="34.9"/></clipPath><g clip-path="url(#t26)"><rect class="rest" x="813.4" y="218.8" width="38.6" height="34.9"/>
<rect x="813.4" y="218.8" width="38.1" height="34.9" fill="#196c2e"/>
<rect x="813.4" y="218.8" width="37.1" height="34.9" fill="#2ea043"/>
<rect x="813.4" y="218.8" width="9.9" height="34.9" fill="url(#dots)"/>
<text x="817.4" y="231.3" font-size="9.0" fill="#ffffff" style="paint-order:stroke" stroke="#0008" stroke-width="2">Thing</text>
</g><rect class="edge" x="813.4" y="218.8" width="38.6" height="34.9" fill="none"/></g>
    <g><title>Device &amp; graphics: 7 smaller folders
59,016 bytes
byte-matched 96.6% (own source 95.2%)
linked (last census) 39.7%</title><clipPath id="t27"><rect x="772.2" y="253.7" width="28.4" height="45.0"/></clipPath><g clip-path="url(#t27)"><rect class="rest" x="772.2" y="253.7" width="28.4" height="45.0"/>
<rect x="772.2" y="253.7" width="27.4" height="45.0" fill="#196c2e"/>
<rect x="772.2" y="253.7" width="27.0" height="45.0" fill="#2ea043"/>
<rect x="772.2" y="253.7" width="11.3" height="45.0" fill="url(#dots)"/>
<text x="776.2" y="266.2" font-size="9.0" fill="#ffffff" style="paint-order:stroke" stroke="#0008" stroke-width="2">Device</text>
<text x="776.2" y="277.9" font-size="9.0" fill="#ffffff" style="paint-order:stroke" stroke="#0008" stroke-width="2">&amp;</text>
<text x="776.2" y="289.6" font-size="9.0" fill="#ffffff" style="paint-order:stroke" stroke="#0008" stroke-width="2">graphics…</text>
</g><rect class="edge" x="772.2" y="253.7" width="28.4" height="45.0" fill="none"/></g>
    <g><title>game/GameEngine/Source/GameLogic/Map
55,819 bytes
byte-matched 95.2% (own source 94.7%)
linked (last census) 18.4%</title><clipPath id="t28"><rect x="800.6" y="253.7" width="26.9" height="45.0"/></clipPath><g clip-path="url(#t28)"><rect class="rest" x="800.6" y="253.7" width="26.9" height="45.0"/>
<rect x="800.6" y="253.7" width="25.6" height="45.0" fill="#196c2e"/>
<rect x="800.6" y="253.7" width="25.4" height="45.0" fill="#2ea043"/>
<rect x="800.6" y="253.7" width="4.9" height="45.0" fill="url(#dots)"/>
<text x="804.6" y="266.2" font-size="9.0" fill="#ffffff" style="paint-order:stroke" stroke="#0008" stroke-width="2">Map</text>
</g><rect class="edge" x="800.6" y="253.7" width="26.9" height="45.0" fill="none"/></g>
    <g><title>game/GameEngine/Source/Common/INI
50,990 bytes
byte-matched 98.5% (own source 80.7%)
linked (last census) 7.8%</title><clipPath id="t29"><rect x="827.5" y="253.7" width="24.5" height="45.0"/></clipPath><g clip-path="url(#t29)"><rect class="rest" x="827.5" y="253.7" width="24.5" height="45.0"/>
<rect x="827.5" y="253.7" width="24.2" height="45.0" fill="#196c2e"/>
<rect x="827.5" y="253.7" width="19.8" height="45.0" fill="#2ea043"/>
<rect x="827.5" y="253.7" width="1.9" height="45.0" fill="url(#dots)"/>
<text x="831.5" y="266.2" font-size="9.0" fill="#ffffff" style="paint-order:stroke" stroke="#0008" stroke-width="2">INI</text>
</g><rect class="edge" x="827.5" y="253.7" width="24.5" height="45.0" fill="none"/></g>
  </g>
</svg>
