<svg xmlns="http://www.w3.org/2000/svg" width="880" height="202" viewBox="0 0 880 202" role="img" aria-label="BFME 1 progress over time">
  <style>
    .card { fill: #0d1117; stroke: #30363d; } .muted { fill: #8b949e; } .grid { stroke: #30363d; }
    .axis { fill: #8b949e; font-size: 12px; } .rest { fill: #30363d; } .edge { stroke: #0d1117; }
    .hit { fill: transparent; }
    @media (prefers-color-scheme: light) {
      .card { fill: #ffffff; stroke: #d0d7de; } .muted { fill: #59636e; } .grid { stroke: #d0d7de; }
      .axis { fill: #59636e; } .rest { fill: #d0d7de; } .edge { stroke: #ffffff; }
    }
  </style>
  <defs><pattern id="dots" width="5" height="5" patternUnits="userSpaceOnUse"><rect width="5" height="5" fill="#56d364"/><circle cx="2.5" cy="2.5" r="1.1" fill="#196c2e"/></pattern></defs>
  <rect class="card" x="0.5" y="0.5" width="879" height="201" rx="12"/>
  <g font-family="-apple-system,BlinkMacSystemFont,'Segoe UI','Noto Sans',Helvetica,Arial,sans-serif">
    <text x="28" y="29" class="muted" font-size="13" font-weight="600" letter-spacing="1.3">BFME 1 · OVER TIME</text>
    <rect x="200" y="20" width="10" height="10" rx="2" fill="#2ea043"/><text x="216" y="29" class="muted" font-size="12.5">byte-matched, daily</text><rect x="360" y="20" width="10" height="10" rx="2" fill="url(#dots)"/><text x="376" y="29" class="muted" font-size="12.5">linking, per census</text>
<svg x="28" y="44" width="824" height="144" viewBox="0 0 1100 190" role="img" aria-label="progress over time"><line x1="40" x2="1092" y1="166.0" y2="166.0" class="grid"/><text x="32" y="170.0" class="axis" text-anchor="end">0%</text><line x1="40" x2="1092" y1="127.0" y2="127.0" class="grid"/><text x="32" y="131.0" class="axis" text-anchor="end">25%</text><line x1="40" x2="1092" y1="88.0" y2="88.0" class="grid"/><text x="32" y="92.0" class="axis" text-anchor="end">50%</text><line x1="40" x2="1092" y1="49.0" y2="49.0" class="grid"/><text x="32" y="53.0" class="axis" text-anchor="end">75%</text><line x1="40" x2="1092" y1="10.0" y2="10.0" class="grid"/><text x="32" y="14.0" class="axis" text-anchor="end">100%</text><text x="70.6" y="182" class="axis">Jul</text><text x="387.3" y="182" class="axis">Aug</text><text x="703.9" y="182" class="axis">Sep</text><text x="1010.3" y="182" class="axis">Oct</text><polygon points="40.0,166.0 40.0,165.9 50.2,165.8 60.4,165.1 70.6,164.5 80.9,162.9 91.1,162.9 101.3,162.9 111.5,162.5 121.7,161.5 131.9,160.0 142.1,159.0 152.3,158.7 162.6,158.6 172.8,158.3 183.0,159.3 193.2,158.2 203.4,158.0 213.6,158.0 223.8,157.9 234.1,157.8 244.3,157.7 254.5,157.7 264.7,157.5 274.9,157.5 285.1,157.3 295.3,157.3 305.6,157.3 315.8,157.1 326.0,157.1 336.2,156.8 346.4,156.8 356.6,156.8 366.8,156.8 377.0,156.6 387.3,156.4 397.5,153.8 407.7,149.5 417.9,138.6 428.1,138.5 438.3,138.5 448.5,138.3 458.8,138.3 469.0,138.2 479.2,137.7 489.4,123.2 499.6,122.1 509.8,119.0 520.0,118.8 530.3,118.8 540.5,111.0 550.7,109.6 560.9,109.3 571.1,108.8 581.3,108.2 591.5,105.0 601.7,103.3 612.0,102.0 622.2,99.6 632.4,98.8 642.6,97.3 652.8,96.3 663.0,95.0 673.2,93.9 683.5,93.4 693.7,92.9 703.9,91.9 714.1,89.1 724.3,86.9 734.5,84.0 744.7,82.4 755.0,79.2 765.2,76.4 775.4,73.3 785.6,71.6 795.8,69.4 806.0,67.7 816.2,66.0 826.4,65.9 836.7,65.5 846.9,65.1 857.1,64.1 867.3,63.7 877.5,62.7 887.7,62.1 897.9,61.4 908.2,61.0 918.4,59.8 928.6,56.8 938.8,55.2 949.0,53.6 959.2,50.0 969.4,44.9 979.7,38.6 989.9,38.1 1000.1,37.1 1010.3,36.7 1020.5,36.4 1030.7,36.1 1040.9,35.8 1051.1,34.8 1061.4,33.9 1071.6,33.9 1081.8,33.9 1092.0,33.5 1092.0,166.0" fill="#2ea043" opacity="0.14"/><polyline points="40.0,165.9 50.2,165.8 60.4,165.1 70.6,164.5 80.9,162.9 91.1,162.9 101.3,162.9 111.5,162.5 121.7,161.5 131.9,160.0 142.1,159.0 152.3,158.7 162.6,158.6 172.8,158.3 183.0,159.3 193.2,158.2 203.4,158.0 213.6,158.0 223.8,157.9 234.1,157.8 244.3,157.7 254.5,157.7 264.7,157.5 274.9,157.5 285.1,157.3 295.3,157.3 305.6,157.3 315.8,157.1 326.0,157.1 336.2,156.8 346.4,156.8 356.6,156.8 366.8,156.8 377.0,156.6 387.3,156.4 397.5,153.8 407.7,149.5 417.9,138.6 428.1,138.5 438.3,138.5 448.5,138.3 458.8,138.3 469.0,138.2 479.2,137.7 489.4,123.2 499.6,122.1 509.8,119.0 520.0,118.8 530.3,118.8 540.5,111.0 550.7,109.6 560.9,109.3 571.1,108.8 581.3,108.2 591.5,105.0 601.7,103.3 612.0,102.0 622.2,99.6 632.4,98.8 642.6,97.3 652.8,96.3 663.0,95.0 673.2,93.9 683.5,93.4 693.7,92.9 703.9,91.9 714.1,89.1 724.3,86.9 734.5,84.0 744.7,82.4 755.0,79.2 765.2,76.4 775.4,73.3 785.6,71.6 795.8,69.4 806.0,67.7 816.2,66.0 826.4,65.9 836.7,65.5 846.9,65.1 857.1,64.1 867.3,63.7 877.5,62.7 887.7,62.1 897.9,61.4 908.2,61.0 918.4,59.8 928.6,56.8 938.8,55.2 949.0,53.6 959.2,50.0 969.4,44.9 979.7,38.6 989.9,38.1 1000.1,37.1 1010.3,36.7 1020.5,36.4 1030.7,36.1 1040.9,35.8 1051.1,34.8 1061.4,33.9 1071.6,33.9 1081.8,33.9 1092.0,33.5" fill="none" stroke="#2ea043" stroke-width="2.5" stroke-linejoin="round"/><polyline points="989.9,152.1 989.9,151.9 989.9,156.3 989.9,155.3 1000.1,155.1 1000.1,153.7 1000.1,153.6 1000.1,153.5 1000.1,153.4 1000.1,153.2 1000.1,153.0 1000.1,152.0 1020.5,147.4 1020.5,145.7 1030.7,143.8 1030.7,143.6 1061.4,139.3 1071.6,133.7 1081.8,132.4 1092.0,132.0" fill="none" stroke="#56d364" stroke-width="2.5" stroke-dasharray="0.1 6" stroke-linecap="round"/><circle cx="989.9" cy="152.1" r="4" fill="#56d364"><title>2026-09-29: linking 8.90%</title></circle><circle cx="989.9" cy="151.9" r="4" fill="#56d364"><title>2026-09-29: linking 9.07%</title></circle><circle cx="989.9" cy="156.3" r="4" fill="#56d364"><title>2026-09-29: linking 6.22%</title></circle><circle cx="989.9" cy="155.3" r="4" fill="#56d364"><title>2026-09-29: linking 6.83%</title></circle><circle cx="1000.1" cy="155.1" r="4" fill="#56d364"><title>2026-09-30: linking 6.96%</title></circle><circle cx="1000.1" cy="153.7" r="4" fill="#56d364"><title>2026-09-30: linking 7.88%</title></circle><circle cx="1000.1" cy="153.6" r="4" fill="#56d364"><title>2026-09-30: linking 7.92%</title></circle><circle cx="1000.1" cy="153.5" r="4" fill="#56d364"><title>2026-09-30: linking 8.03%</title></circle><circle cx="1000.1" cy="153.4" r="4" fill="#56d364"><title>2026-09-30: linking 8.07%</title></circle><circle cx="1000.1" cy="153.2" r="4" fill="#56d364"><title>2026-09-30: linking 8.20%</title></circle><circle cx="1000.1" cy="153.0" r="4" fill="#56d364"><title>2026-09-30: linking 8.36%</title></circle><circle cx="1000.1" cy="152.0" r="4" fill="#56d364"><title>2026-09-30: linking 8.96%</title></circle><circle cx="1020.5" cy="147.4" r="4" fill="#56d364"><title>2026-10-02: linking 11.91%</title></circle><circle cx="1020.5" cy="145.7" r="4" fill="#56d364"><title>2026-10-02: linking 13.00%</title></circle><circle cx="1030.7" cy="143.8" r="4" fill="#56d364"><title>2026-10-03: linking 14.23%</title></circle><circle cx="1030.7" cy="143.6" r="4" fill="#56d364"><title>2026-10-03: linking 14.33%</title></circle><circle cx="1061.4" cy="139.3" r="4" fill="#56d364"><title>2026-10-06: linking 17.10%</title></circle><circle cx="1071.6" cy="133.7" r="4" fill="#56d364"><title>2026-10-07: linking 20.72%</title></circle><circle cx="1081.8" cy="132.4" r="4" fill="#56d364"><title>2026-10-08: linking 21.53%</title></circle><circle cx="1092.0" cy="132.0" r="4" fill="#56d364"><title>2026-10-09: linking 21.80%</title></circle><circle cx="40.0" cy="165.9" r="7" class="hit"><title>2026-06-28: byte-matched 0.06%</title></circle><circle cx="50.2" cy="165.8" r="7" class="hit"><title>2026-06-29: byte-matched 0.10%</title></circle><circle cx="60.4" cy="165.1" r="7" class="hit"><title>2026-06-30: byte-matched 0.55%</title></circle><circle cx="70.6" cy="164.5" r="7" class="hit"><title>2026-07-01: byte-matched 0.94%</title></circle><circle cx="80.9" cy="162.9" r="7" class="hit"><title>2026-07-02: byte-matched 1.96%</title></circle><circle cx="91.1" cy="162.9" r="7" class="hit"><title>2026-07-03: byte-matched 1.99%</title></circle><circle cx="101.3" cy="162.9" r="7" class="hit"><title>2026-07-04: byte-matched 1.99%</title></circle><circle cx="111.5" cy="162.5" r="7" class="hit"><title>2026-07-05: byte-matched 2.24%</title></circle><circle cx="121.7" cy="161.5" r="7" class="hit"><title>2026-07-06: byte-matched 2.88%</title></circle><circle cx="131.9" cy="160.0" r="7" class="hit"><title>2026-07-07: byte-matched 3.87%</title></circle><circle cx="142.1" cy="159.0" r="7" class="hit"><title>2026-07-08: byte-matched 4.46%</title></circle><circle cx="152.3" cy="158.7" r="7" class="hit"><title>2026-07-09: byte-matched 4.66%</title></circle><circle cx="162.6" cy="158.6" r="7" class="hit"><title>2026-07-10: byte-matched 4.74%</title></circle><circle cx="172.8" cy="158.3" r="7" class="hit"><title>2026-07-11: byte-matched 4.96%</title></circle><circle cx="183.0" cy="159.3" r="7" class="hit"><title>2026-07-12: byte-matched 4.31%</title></circle><circle cx="193.2" cy="158.2" r="7" class="hit"><title>2026-07-13: byte-matched 5.03%</title></circle><circle cx="203.4" cy="158.0" r="7" class="hit"><title>2026-07-14: byte-matched 5.12%</title></circle><circle cx="213.6" cy="158.0" r="7" class="hit"><title>2026-07-15: byte-matched 5.12%</title></circle><circle cx="223.8" cy="157.9" r="7" class="hit"><title>2026-07-16: byte-matched 5.16%</title></circle><circle cx="234.1" cy="157.8" r="7" class="hit"><title>2026-07-17: byte-matched 5.25%</title></circle><circle cx="244.3" cy="157.7" r="7" class="hit"><title>2026-07-18: byte-matched 5.32%</title></circle><circle cx="254.5" cy="157.7" r="7" class="hit"><title>2026-07-19: byte-matched 5.35%</title></circle><circle cx="264.7" cy="157.5" r="7" class="hit"><title>2026-07-20: byte-matched 5.43%</title></circle><circle cx="274.9" cy="157.5" r="7" class="hit"><title>2026-07-21: byte-matched 5.48%</title></circle><circle cx="285.1" cy="157.3" r="7" class="hit"><title>2026-07-22: byte-matched 5.57%</title></circle><circle cx="295.3" cy="157.3" r="7" class="hit"><title>2026-07-23: byte-matched 5.59%</title></circle><circle cx="305.6" cy="157.3" r="7" class="hit"><title>2026-07-24: byte-matched 5.60%</title></circle><circle cx="315.8" cy="157.1" r="7" class="hit"><title>2026-07-25: byte-matched 5.68%</title></circle><circle cx="326.0" cy="157.1" r="7" class="hit"><title>2026-07-26: byte-matched 5.69%</title></circle><circle cx="336.2" cy="156.8" r="7" class="hit"><title>2026-07-27: byte-matched 5.87%</title></circle><circle cx="346.4" cy="156.8" r="7" class="hit"><title>2026-07-28: byte-matched 5.88%</title></circle><circle cx="356.6" cy="156.8" r="7" class="hit"><title>2026-07-29: byte-matched 5.89%</title></circle><circle cx="366.8" cy="156.8" r="7" class="hit"><title>2026-07-30: byte-matched 5.89%</title></circle><circle cx="377.0" cy="156.6" r="7" class="hit"><title>2026-07-31: byte-matched 6.03%</title></circle><circle cx="387.3" cy="156.4" r="7" class="hit"><title>2026-08-01: byte-matched 6.18%</title></circle><circle cx="397.5" cy="153.8" r="7" class="hit"><title>2026-08-02: byte-matched 7.83%</title></circle><circle cx="407.7" cy="149.5" r="7" class="hit"><title>2026-08-03: byte-matched 10.56%</title></circle><circle cx="417.9" cy="138.6" r="7" class="hit"><title>2026-08-04: byte-matched 17.56%</title></circle><circle cx="428.1" cy="138.5" r="7" class="hit"><title>2026-08-05: byte-matched 17.64%</title></circle><circle cx="438.3" cy="138.5" r="7" class="hit"><title>2026-08-06: byte-matched 17.65%</title></circle><circle cx="448.5" cy="138.3" r="7" class="hit"><title>2026-08-07: byte-matched 17.73%</title></circle><circle cx="458.8" cy="138.3" r="7" class="hit"><title>2026-08-08: byte-matched 17.73%</title></circle><circle cx="469.0" cy="138.2" r="7" class="hit"><title>2026-08-09: byte-matched 17.84%</title></circle><circle cx="479.2" cy="137.7" r="7" class="hit"><title>2026-08-10: byte-matched 18.13%</title></circle><circle cx="489.4" cy="123.2" r="7" class="hit"><title>2026-08-11: byte-matched 27.42%</title></circle><circle cx="499.6" cy="122.1" r="7" class="hit"><title>2026-08-12: byte-matched 28.12%</title></circle><circle cx="509.8" cy="119.0" r="7" class="hit"><title>2026-08-13: byte-matched 30.11%</title></circle><circle cx="520.0" cy="118.8" r="7" class="hit"><title>2026-08-14: byte-matched 30.24%</title></circle><circle cx="530.3" cy="118.8" r="7" class="hit"><title>2026-08-15: byte-matched 30.27%</title></circle><circle cx="540.5" cy="111.0" r="7" class="hit"><title>2026-08-16: byte-matched 35.25%</title></circle><circle cx="550.7" cy="109.6" r="7" class="hit"><title>2026-08-17: byte-matched 36.17%</title></circle><circle cx="560.9" cy="109.3" r="7" class="hit"><title>2026-08-18: byte-matched 36.35%</title></circle><circle cx="571.1" cy="108.8" r="7" class="hit"><title>2026-08-19: byte-matched 36.69%</title></circle><circle cx="581.3" cy="108.2" r="7" class="hit"><title>2026-08-20: byte-matched 37.07%</title></circle><circle cx="591.5" cy="105.0" r="7" class="hit"><title>2026-08-21: byte-matched 39.09%</title></circle><circle cx="601.7" cy="103.3" r="7" class="hit"><title>2026-08-22: byte-matched 40.17%</title></circle><circle cx="612.0" cy="102.0" r="7" class="hit"><title>2026-08-23: byte-matched 41.02%</title></circle><circle cx="622.2" cy="99.6" r="7" class="hit"><title>2026-08-24: byte-matched 42.54%</title></circle><circle cx="632.4" cy="98.8" r="7" class="hit"><title>2026-08-25: byte-matched 43.10%</title></circle><circle cx="642.6" cy="97.3" r="7" class="hit"><title>2026-08-26: byte-matched 44.04%</title></circle><circle cx="652.8" cy="96.3" r="7" class="hit"><title>2026-08-27: byte-matched 44.68%</title></circle><circle cx="663.0" cy="95.0" r="7" class="hit"><title>2026-08-28: byte-matched 45.54%</title></circle><circle cx="673.2" cy="93.9" r="7" class="hit"><title>2026-08-29: byte-matched 46.22%</title></circle><circle cx="683.5" cy="93.4" r="7" class="hit"><title>2026-08-30: byte-matched 46.54%</title></circle><circle cx="693.7" cy="92.9" r="7" class="hit"><title>2026-08-31: byte-matched 46.89%</title></circle><circle cx="703.9" cy="91.9" r="7" class="hit"><title>2026-09-01: byte-matched 47.48%</title></circle><circle cx="714.1" cy="89.1" r="7" class="hit"><title>2026-09-02: byte-matched 49.32%</title></circle><circle cx="724.3" cy="86.9" r="7" class="hit"><title>2026-09-03: byte-matched 50.70%</title></circle><circle cx="734.5" cy="84.0" r="7" class="hit"><title>2026-09-04: byte-matched 52.55%</title></circle><circle cx="744.7" cy="82.4" r="7" class="hit"><title>2026-09-05: byte-matched 53.56%</title></circle><circle cx="755.0" cy="79.2" r="7" class="hit"><title>2026-09-06: byte-matched 55.63%</title></circle><circle cx="765.2" cy="76.4" r="7" class="hit"><title>2026-09-07: byte-matched 57.45%</title></circle><circle cx="775.4" cy="73.3" r="7" class="hit"><title>2026-09-08: byte-matched 59.45%</title></circle><circle cx="785.6" cy="71.6" r="7" class="hit"><title>2026-09-09: byte-matched 60.51%</title></circle><circle cx="795.8" cy="69.4" r="7" class="hit"><title>2026-09-10: byte-matched 61.93%</title></circle><circle cx="806.0" cy="67.7" r="7" class="hit"><title>2026-09-11: byte-matched 63.03%</title></circle><circle cx="816.2" cy="66.0" r="7" class="hit"><title>2026-09-12: byte-matched 64.12%</title></circle><circle cx="826.4" cy="65.9" r="7" class="hit"><title>2026-09-13: byte-matched 64.18%</title></circle><circle cx="836.7" cy="65.5" r="7" class="hit"><title>2026-09-14: byte-matched 64.43%</title></circle><circle cx="846.9" cy="65.1" r="7" class="hit"><title>2026-09-15: byte-matched 64.69%</title></circle><circle cx="857.1" cy="64.1" r="7" class="hit"><title>2026-09-16: byte-matched 65.34%</title></circle><circle cx="867.3" cy="63.7" r="7" class="hit"><title>2026-09-17: byte-matched 65.58%</title></circle><circle cx="877.5" cy="62.7" r="7" class="hit"><title>2026-09-18: byte-matched 66.21%</title></circle><circle cx="887.7" cy="62.1" r="7" class="hit"><title>2026-09-19: byte-matched 66.63%</title></circle><circle cx="897.9" cy="61.4" r="7" class="hit"><title>2026-09-20: byte-matched 67.04%</title></circle><circle cx="908.2" cy="61.0" r="7" class="hit"><title>2026-09-21: byte-matched 67.32%</title></circle><circle cx="918.4" cy="59.8" r="7" class="hit"><title>2026-09-22: byte-matched 68.08%</title></circle><circle cx="928.6" cy="56.8" r="7" class="hit"><title>2026-09-23: byte-matched 70.02%</title></circle><circle cx="938.8" cy="55.2" r="7" class="hit"><title>2026-09-24: byte-matched 71.04%</title></circle><circle cx="949.0" cy="53.6" r="7" class="hit"><title>2026-09-25: byte-matched 72.08%</title></circle><circle cx="959.2" cy="50.0" r="7" class="hit"><title>2026-09-26: byte-matched 74.33%</title></circle><circle cx="969.4" cy="44.9" r="7" class="hit"><title>2026-09-27: byte-matched 77.60%</title></circle><circle cx="979.7" cy="38.6" r="7" class="hit"><title>2026-09-28: byte-matched 81.69%</title></circle><circle cx="989.9" cy="38.1" r="7" class="hit"><title>2026-09-29: byte-matched 81.99%</title></circle><circle cx="1000.1" cy="37.1" r="7" class="hit"><title>2026-09-30: byte-matched 82.65%</title></circle><circle cx="1010.3" cy="36.7" r="7" class="hit"><title>2026-10-01: byte-matched 82.90%</title></circle><circle cx="1020.5" cy="36.4" r="7" class="hit"><title>2026-10-02: byte-matched 83.05%</title></circle><circle cx="1030.7" cy="36.1" r="7" class="hit"><title>2026-10-03: byte-matched 83.24%</title></circle><circle cx="1040.9" cy="35.8" r="7" class="hit"><title>2026-10-04: byte-matched 83.48%</title></circle><circle cx="1051.1" cy="34.8" r="7" class="hit"><title>2026-10-05: byte-matched 84.10%</title></circle><circle cx="1061.4" cy="33.9" r="7" class="hit"><title>2026-10-06: byte-matched 84.66%</title></circle><circle cx="1071.6" cy="33.9" r="7" class="hit"><title>2026-10-07: byte-matched 84.67%</title></circle><circle cx="1081.8" cy="33.9" r="7" class="hit"><title>2026-10-08: byte-matched 84.68%</title></circle><circle cx="1092.0" cy="33.5" r="7" class="hit"><title>2026-10-09: byte-matched 84.96%</title></circle></svg>
  </g>
</svg>
