<svg xmlns="http://www.w3.org/2000/svg" width="880" height="202" viewBox="0 0 880 202" role="img" aria-label="BFME 1 progress over time">
  <style>
    .card { fill: #0d1117; stroke: #30363d; } .muted { fill: #8b949e; } .grid { stroke: #30363d; }
    .axis { fill: #8b949e; font-size: 12px; } .rest { fill: #30363d; } .edge { stroke: #0d1117; }
    .hit { fill: transparent; }
    @media (prefers-color-scheme: light) {
      .card { fill: #ffffff; stroke: #d0d7de; } .muted { fill: #59636e; } .grid { stroke: #d0d7de; }
      .axis { fill: #59636e; } .rest { fill: #d0d7de; } .edge { stroke: #ffffff; }
    }
  </style>
  <defs><pattern id="dots" width="5" height="5" patternUnits="userSpaceOnUse"><rect width="5" height="5" fill="#56d364"/><circle cx="2.5" cy="2.5" r="1.1" fill="#196c2e"/></pattern></defs>
  <rect class="card" x="0.5" y="0.5" width="879" height="201" rx="12"/>
  <g font-family="-apple-system,BlinkMacSystemFont,'Segoe UI','Noto Sans',Helvetica,Arial,sans-serif">
    <text x="28" y="29" class="muted" font-size="13" font-weight="600" letter-spacing="1.3">BFME 1 · OVER TIME</text>
    <rect x="200" y="20" width="10" height="10" rx="2" fill="#2ea043"/><text x="216" y="29" class="muted" font-size="12.5">byte-matched, daily</text><rect x="360" y="20" width="10" height="10" rx="2" fill="url(#dots)"/><text x="376" y="29" class="muted" font-size="12.5">linking, per census</text>
<svg x="28" y="44" width="824" height="144" viewBox="0 0 1100 190" role="img" aria-label="progress over time"><line x1="40" x2="1092" y1="166.0" y2="166.0" class="grid"/><text x="32" y="170.0" class="axis" text-anchor="end">0%</text><line x1="40" x2="1092" y1="127.0" y2="127.0" class="grid"/><text x="32" y="131.0" class="axis" text-anchor="end">25%</text><line x1="40" x2="1092" y1="88.0" y2="88.0" class="grid"/><text x="32" y="92.0" class="axis" text-anchor="end">50%</text><line x1="40" x2="1092" y1="49.0" y2="49.0" class="grid"/><text x="32" y="53.0" class="axis" text-anchor="end">75%</text><line x1="40" x2="1092" y1="10.0" y2="10.0" class="grid"/><text x="32" y="14.0" class="axis" text-anchor="end">100%</text><text x="73.2" y="182" class="axis">Jul</text><text x="416.5" y="182" class="axis">Aug</text><text x="759.8" y="182" class="axis">Sep</text><text x="1092.0" y="182" class="axis">Oct</text><polygon points="40.0,166.0 40.0,165.9 51.1,165.8 62.1,165.1 73.2,164.5 84.3,162.9 95.4,162.9 106.4,162.9 117.5,162.5 128.6,161.5 139.7,160.0 150.7,159.0 161.8,158.7 172.9,158.6 184.0,158.3 195.0,159.3 206.1,158.2 217.2,158.0 228.3,158.0 239.3,157.9 250.4,157.8 261.5,157.7 272.5,157.7 283.6,157.5 294.7,157.5 305.8,157.3 316.8,157.3 327.9,157.3 339.0,157.1 350.1,157.1 361.1,156.8 372.2,156.8 383.3,156.8 394.4,156.8 405.4,156.6 416.5,156.4 427.6,153.8 438.7,149.5 449.7,138.6 460.8,138.5 471.9,138.5 482.9,138.3 494.0,138.3 505.1,138.2 516.2,137.7 527.2,123.2 538.3,122.1 549.4,119.0 560.5,118.8 571.5,118.8 582.6,111.0 593.7,109.6 604.8,109.3 615.8,108.8 626.9,108.2 638.0,105.0 649.1,103.3 660.1,102.0 671.2,99.6 682.3,98.8 693.3,97.3 704.4,96.3 715.5,95.0 726.6,93.9 737.6,93.4 748.7,92.9 759.8,91.9 770.9,89.1 781.9,86.9 793.0,84.0 804.1,82.4 815.2,79.2 826.2,76.4 837.3,73.3 848.4,71.6 859.5,69.4 870.5,67.7 881.6,66.0 892.7,65.9 903.7,65.5 914.8,65.1 925.9,64.1 937.0,63.7 948.0,62.7 959.1,62.1 970.2,61.4 981.3,61.0 992.3,59.8 1003.4,56.8 1014.5,55.2 1025.6,53.6 1036.6,50.0 1047.7,44.9 1058.8,38.6 1069.9,38.1 1080.9,37.1 1092.0,36.7 1092.0,166.0" fill="#2ea043" opacity="0.14"/><polyline points="40.0,165.9 51.1,165.8 62.1,165.1 73.2,164.5 84.3,162.9 95.4,162.9 106.4,162.9 117.5,162.5 128.6,161.5 139.7,160.0 150.7,159.0 161.8,158.7 172.9,158.6 184.0,158.3 195.0,159.3 206.1,158.2 217.2,158.0 228.3,158.0 239.3,157.9 250.4,157.8 261.5,157.7 272.5,157.7 283.6,157.5 294.7,157.5 305.8,157.3 316.8,157.3 327.9,157.3 339.0,157.1 350.1,157.1 361.1,156.8 372.2,156.8 383.3,156.8 394.4,156.8 405.4,156.6 416.5,156.4 427.6,153.8 438.7,149.5 449.7,138.6 460.8,138.5 471.9,138.5 482.9,138.3 494.0,138.3 505.1,138.2 516.2,137.7 527.2,123.2 538.3,122.1 549.4,119.0 560.5,118.8 571.5,118.8 582.6,111.0 593.7,109.6 604.8,109.3 615.8,108.8 626.9,108.2 638.0,105.0 649.1,103.3 660.1,102.0 671.2,99.6 682.3,98.8 693.3,97.3 704.4,96.3 715.5,95.0 726.6,93.9 737.6,93.4 748.7,92.9 759.8,91.9 770.9,89.1 781.9,86.9 793.0,84.0 804.1,82.4 815.2,79.2 826.2,76.4 837.3,73.3 848.4,71.6 859.5,69.4 870.5,67.7 881.6,66.0 892.7,65.9 903.7,65.5 914.8,65.1 925.9,64.1 937.0,63.7 948.0,62.7 959.1,62.1 970.2,61.4 981.3,61.0 992.3,59.8 1003.4,56.8 1014.5,55.2 1025.6,53.6 1036.6,50.0 1047.7,44.9 1058.8,38.6 1069.9,38.1 1080.9,37.1 1092.0,36.7" fill="none" stroke="#2ea043" stroke-width="2.5" stroke-linejoin="round"/><polyline points="1069.9,152.1 1069.9,151.9 1069.9,156.3 1069.9,155.3 1080.9,155.1 1080.9,153.7 1080.9,153.6 1080.9,153.5 1080.9,153.4 1080.9,153.2 1080.9,153.0 1080.9,152.0" fill="none" stroke="#56d364" stroke-width="2.5" stroke-dasharray="0.1 6" stroke-linecap="round"/><circle cx="1069.9" cy="152.1" r="4" fill="#56d364"><title>2026-09-29: linking 8.90%</title></circle><circle cx="1069.9" cy="151.9" r="4" fill="#56d364"><title>2026-09-29: linking 9.07%</title></circle><circle cx="1069.9" cy="156.3" r="4" fill="#56d364"><title>2026-09-29: linking 6.22%</title></circle><circle cx="1069.9" cy="155.3" r="4" fill="#56d364"><title>2026-09-29: linking 6.83%</title></circle><circle cx="1080.9" cy="155.1" r="4" fill="#56d364"><title>2026-09-30: linking 6.96%</title></circle><circle cx="1080.9" cy="153.7" r="4" fill="#56d364"><title>2026-09-30: linking 7.88%</title></circle><circle cx="1080.9" cy="153.6" r="4" fill="#56d364"><title>2026-09-30: linking 7.92%</title></circle><circle cx="1080.9" cy="153.5" r="4" fill="#56d364"><title>2026-09-30: linking 8.03%</title></circle><circle cx="1080.9" cy="153.4" r="4" fill="#56d364"><title>2026-09-30: linking 8.07%</title></circle><circle cx="1080.9" cy="153.2" r="4" fill="#56d364"><title>2026-09-30: linking 8.20%</title></circle><circle cx="1080.9" cy="153.0" r="4" fill="#56d364"><title>2026-09-30: linking 8.36%</title></circle><circle cx="1080.9" cy="152.0" r="4" fill="#56d364"><title>2026-09-30: linking 8.96%</title></circle><circle cx="40.0" cy="165.9" r="7" class="hit"><title>2026-06-28: byte-matched 0.06%</title></circle><circle cx="51.1" cy="165.8" r="7" class="hit"><title>2026-06-29: byte-matched 0.10%</title></circle><circle cx="62.1" cy="165.1" r="7" class="hit"><title>2026-06-30: byte-matched 0.55%</title></circle><circle cx="73.2" cy="164.5" r="7" class="hit"><title>2026-07-01: byte-matched 0.94%</title></circle><circle cx="84.3" cy="162.9" r="7" class="hit"><title>2026-07-02: byte-matched 1.96%</title></circle><circle cx="95.4" cy="162.9" r="7" class="hit"><title>2026-07-03: byte-matched 1.99%</title></circle><circle cx="106.4" cy="162.9" r="7" class="hit"><title>2026-07-04: byte-matched 1.99%</title></circle><circle cx="117.5" cy="162.5" r="7" class="hit"><title>2026-07-05: byte-matched 2.24%</title></circle><circle cx="128.6" cy="161.5" r="7" class="hit"><title>2026-07-06: byte-matched 2.88%</title></circle><circle cx="139.7" cy="160.0" r="7" class="hit"><title>2026-07-07: byte-matched 3.87%</title></circle><circle cx="150.7" cy="159.0" r="7" class="hit"><title>2026-07-08: byte-matched 4.46%</title></circle><circle cx="161.8" cy="158.7" r="7" class="hit"><title>2026-07-09: byte-matched 4.66%</title></circle><circle cx="172.9" cy="158.6" r="7" class="hit"><title>2026-07-10: byte-matched 4.74%</title></circle><circle cx="184.0" cy="158.3" r="7" class="hit"><title>2026-07-11: byte-matched 4.96%</title></circle><circle cx="195.0" cy="159.3" r="7" class="hit"><title>2026-07-12: byte-matched 4.31%</title></circle><circle cx="206.1" cy="158.2" r="7" class="hit"><title>2026-07-13: byte-matched 5.03%</title></circle><circle cx="217.2" cy="158.0" r="7" class="hit"><title>2026-07-14: byte-matched 5.12%</title></circle><circle cx="228.3" cy="158.0" r="7" class="hit"><title>2026-07-15: byte-matched 5.12%</title></circle><circle cx="239.3" cy="157.9" r="7" class="hit"><title>2026-07-16: byte-matched 5.16%</title></circle><circle cx="250.4" cy="157.8" r="7" class="hit"><title>2026-07-17: byte-matched 5.25%</title></circle><circle cx="261.5" cy="157.7" r="7" class="hit"><title>2026-07-18: byte-matched 5.32%</title></circle><circle cx="272.5" cy="157.7" r="7" class="hit"><title>2026-07-19: byte-matched 5.35%</title></circle><circle cx="283.6" cy="157.5" r="7" class="hit"><title>2026-07-20: byte-matched 5.43%</title></circle><circle cx="294.7" cy="157.5" r="7" class="hit"><title>2026-07-21: byte-matched 5.48%</title></circle><circle cx="305.8" cy="157.3" r="7" class="hit"><title>2026-07-22: byte-matched 5.57%</title></circle><circle cx="316.8" cy="157.3" r="7" class="hit"><title>2026-07-23: byte-matched 5.59%</title></circle><circle cx="327.9" cy="157.3" r="7" class="hit"><title>2026-07-24: byte-matched 5.60%</title></circle><circle cx="339.0" cy="157.1" r="7" class="hit"><title>2026-07-25: byte-matched 5.68%</title></circle><circle cx="350.1" cy="157.1" r="7" class="hit"><title>2026-07-26: byte-matched 5.69%</title></circle><circle cx="361.1" cy="156.8" r="7" class="hit"><title>2026-07-27: byte-matched 5.87%</title></circle><circle cx="372.2" cy="156.8" r="7" class="hit"><title>2026-07-28: byte-matched 5.88%</title></circle><circle cx="383.3" cy="156.8" r="7" class="hit"><title>2026-07-29: byte-matched 5.89%</title></circle><circle cx="394.4" cy="156.8" r="7" class="hit"><title>2026-07-30: byte-matched 5.89%</title></circle><circle cx="405.4" cy="156.6" r="7" class="hit"><title>2026-07-31: byte-matched 6.03%</title></circle><circle cx="416.5" cy="156.4" r="7" class="hit"><title>2026-08-01: byte-matched 6.18%</title></circle><circle cx="427.6" cy="153.8" r="7" class="hit"><title>2026-08-02: byte-matched 7.83%</title></circle><circle cx="438.7" cy="149.5" r="7" class="hit"><title>2026-08-03: byte-matched 10.56%</title></circle><circle cx="449.7" cy="138.6" r="7" class="hit"><title>2026-08-04: byte-matched 17.56%</title></circle><circle cx="460.8" cy="138.5" r="7" class="hit"><title>2026-08-05: byte-matched 17.64%</title></circle><circle cx="471.9" cy="138.5" r="7" class="hit"><title>2026-08-06: byte-matched 17.65%</title></circle><circle cx="482.9" cy="138.3" r="7" class="hit"><title>2026-08-07: byte-matched 17.73%</title></circle><circle cx="494.0" cy="138.3" r="7" class="hit"><title>2026-08-08: byte-matched 17.73%</title></circle><circle cx="505.1" cy="138.2" r="7" class="hit"><title>2026-08-09: byte-matched 17.84%</title></circle><circle cx="516.2" cy="137.7" r="7" class="hit"><title>2026-08-10: byte-matched 18.13%</title></circle><circle cx="527.2" cy="123.2" r="7" class="hit"><title>2026-08-11: byte-matched 27.42%</title></circle><circle cx="538.3" cy="122.1" r="7" class="hit"><title>2026-08-12: byte-matched 28.12%</title></circle><circle cx="549.4" cy="119.0" r="7" class="hit"><title>2026-08-13: byte-matched 30.11%</title></circle><circle cx="560.5" cy="118.8" r="7" class="hit"><title>2026-08-14: byte-matched 30.24%</title></circle><circle cx="571.5" cy="118.8" r="7" class="hit"><title>2026-08-15: byte-matched 30.27%</title></circle><circle cx="582.6" cy="111.0" r="7" class="hit"><title>2026-08-16: byte-matched 35.25%</title></circle><circle cx="593.7" cy="109.6" r="7" class="hit"><title>2026-08-17: byte-matched 36.17%</title></circle><circle cx="604.8" cy="109.3" r="7" class="hit"><title>2026-08-18: byte-matched 36.35%</title></circle><circle cx="615.8" cy="108.8" r="7" class="hit"><title>2026-08-19: byte-matched 36.69%</title></circle><circle cx="626.9" cy="108.2" r="7" class="hit"><title>2026-08-20: byte-matched 37.07%</title></circle><circle cx="638.0" cy="105.0" r="7" class="hit"><title>2026-08-21: byte-matched 39.09%</title></circle><circle cx="649.1" cy="103.3" r="7" class="hit"><title>2026-08-22: byte-matched 40.17%</title></circle><circle cx="660.1" cy="102.0" r="7" class="hit"><title>2026-08-23: byte-matched 41.02%</title></circle><circle cx="671.2" cy="99.6" r="7" class="hit"><title>2026-08-24: byte-matched 42.54%</title></circle><circle cx="682.3" cy="98.8" r="7" class="hit"><title>2026-08-25: byte-matched 43.10%</title></circle><circle cx="693.3" cy="97.3" r="7" class="hit"><title>2026-08-26: byte-matched 44.04%</title></circle><circle cx="704.4" cy="96.3" r="7" class="hit"><title>2026-08-27: byte-matched 44.68%</title></circle><circle cx="715.5" cy="95.0" r="7" class="hit"><title>2026-08-28: byte-matched 45.54%</title></circle><circle cx="726.6" cy="93.9" r="7" class="hit"><title>2026-08-29: byte-matched 46.22%</title></circle><circle cx="737.6" cy="93.4" r="7" class="hit"><title>2026-08-30: byte-matched 46.54%</title></circle><circle cx="748.7" cy="92.9" r="7" class="hit"><title>2026-08-31: byte-matched 46.89%</title></circle><circle cx="759.8" cy="91.9" r="7" class="hit"><title>2026-09-01: byte-matched 47.48%</title></circle><circle cx="770.9" cy="89.1" r="7" class="hit"><title>2026-09-02: byte-matched 49.32%</title></circle><circle cx="781.9" cy="86.9" r="7" class="hit"><title>2026-09-03: byte-matched 50.70%</title></circle><circle cx="793.0" cy="84.0" r="7" class="hit"><title>2026-09-04: byte-matched 52.55%</title></circle><circle cx="804.1" cy="82.4" r="7" class="hit"><title>2026-09-05: byte-matched 53.56%</title></circle><circle cx="815.2" cy="79.2" r="7" class="hit"><title>2026-09-06: byte-matched 55.63%</title></circle><circle cx="826.2" cy="76.4" r="7" class="hit"><title>2026-09-07: byte-matched 57.45%</title></circle><circle cx="837.3" cy="73.3" r="7" class="hit"><title>2026-09-08: byte-matched 59.45%</title></circle><circle cx="848.4" cy="71.6" r="7" class="hit"><title>2026-09-09: byte-matched 60.51%</title></circle><circle cx="859.5" cy="69.4" r="7" class="hit"><title>2026-09-10: byte-matched 61.93%</title></circle><circle cx="870.5" cy="67.7" r="7" class="hit"><title>2026-09-11: byte-matched 63.03%</title></circle><circle cx="881.6" cy="66.0" r="7" class="hit"><title>2026-09-12: byte-matched 64.12%</title></circle><circle cx="892.7" cy="65.9" r="7" class="hit"><title>2026-09-13: byte-matched 64.18%</title></circle><circle cx="903.7" cy="65.5" r="7" class="hit"><title>2026-09-14: byte-matched 64.43%</title></circle><circle cx="914.8" cy="65.1" r="7" class="hit"><title>2026-09-15: byte-matched 64.69%</title></circle><circle cx="925.9" cy="64.1" r="7" class="hit"><title>2026-09-16: byte-matched 65.34%</title></circle><circle cx="937.0" cy="63.7" r="7" class="hit"><title>2026-09-17: byte-matched 65.58%</title></circle><circle cx="948.0" cy="62.7" r="7" class="hit"><title>2026-09-18: byte-matched 66.21%</title></circle><circle cx="959.1" cy="62.1" r="7" class="hit"><title>2026-09-19: byte-matched 66.63%</title></circle><circle cx="970.2" cy="61.4" r="7" class="hit"><title>2026-09-20: byte-matched 67.04%</title></circle><circle cx="981.3" cy="61.0" r="7" class="hit"><title>2026-09-21: byte-matched 67.32%</title></circle><circle cx="992.3" cy="59.8" r="7" class="hit"><title>2026-09-22: byte-matched 68.08%</title></circle><circle cx="1003.4" cy="56.8" r="7" class="hit"><title>2026-09-23: byte-matched 70.02%</title></circle><circle cx="1014.5" cy="55.2" r="7" class="hit"><title>2026-09-24: byte-matched 71.04%</title></circle><circle cx="1025.6" cy="53.6" r="7" class="hit"><title>2026-09-25: byte-matched 72.08%</title></circle><circle cx="1036.6" cy="50.0" r="7" class="hit"><title>2026-09-26: byte-matched 74.33%</title></circle><circle cx="1047.7" cy="44.9" r="7" class="hit"><title>2026-09-27: byte-matched 77.60%</title></circle><circle cx="1058.8" cy="38.6" r="7" class="hit"><title>2026-09-28: byte-matched 81.69%</title></circle><circle cx="1069.9" cy="38.1" r="7" class="hit"><title>2026-09-29: byte-matched 81.99%</title></circle><circle cx="1080.9" cy="37.1" r="7" class="hit"><title>2026-09-30: byte-matched 82.65%</title></circle><circle cx="1092.0" cy="36.7" r="7" class="hit"><title>2026-10-01: byte-matched 82.90%</title></circle></svg>
  </g>
</svg>
